<?xml version="1.0" encoding="utf-8"?>
<svg version="1.1" xmlns="http://www.w3.org/2000/svg" xmlns:xlink="http://www.w3.org/1999/xlink" x="0px" y="0px" viewBox="0 0 840 592" style="enable-background:new 0 0 840 592;" xml:space="preserve">
<style type="text/css">
	.st0{fill:none;stroke:#000000;stroke-width:2;}
	.st1{fill:#F9F9F9;stroke:#000000;stroke-width:2;}
</style>
<g id="Calque_6">
	<path class="st0" d="M816.6,308.3c0,4.4-3.7,7.9-8.3,7.9H36c-4.6,0-8.3-3.5-8.3-7.9V139.6c0-4.4,3.7-7.9,8.3-7.9h772.2
		c4.6,0,8.3,3.5,8.3,7.9V308.3z"/>
</g>
<g id="svg__layer-6">
	<g>
		<path class="st1" d="M618.2,302.3c0,1.6-1.3,2.9-2.9,2.9H590c-1.6,0-2.9-1.3-2.9-2.9V277c0-1.6,1.3-2.9,2.9-2.9h25.3
			c1.6,0,2.9,1.3,2.9,2.9V302.3z"/>
		<path class="st1" d="M584.7,302.3c0,1.6-1.3,2.9-2.9,2.9h-25.3c-1.6,0-2.9-1.3-2.9-2.9V277c0-1.6,1.3-2.9,2.9-2.9h25.3
			c1.6,0,2.9,1.3,2.9,2.9V302.3z"/>
		<path class="st1" d="M742.8,302.3c0,1.6-1.3,2.9-2.9,2.9h-56.5c-1.6,0-2.9-1.3-2.9-2.9V277c0-1.6,1.3-2.9,2.9-2.9h56.5
			c1.6,0,2.9,1.3,2.9,2.9V302.3z"/>
		<path class="st1" d="M777.4,302.3c0,1.6-1.3,2.9-2.9,2.9h-25.3c-1.6,0-2.9-1.3-2.9-2.9V277c0-1.6,1.3-2.9,2.9-2.9h25.3
			c1.6,0,2.9,1.3,2.9,2.9V302.3z"/>
		<path class="st1" d="M651.7,302.3c0,1.6-1.3,2.9-2.9,2.9h-25.3c-1.6,0-2.9-1.3-2.9-2.9V277c0-1.6,1.3-2.9,2.9-2.9h25.3
			c1.6,0,2.9,1.3,2.9,2.9V302.3z"/>
		<path class="st1" d="M525.6,302.3c0,1.6-1.3,2.9-2.9,2.9h-31.4c-1.6,0-2.9-1.3-2.9-2.9V277c0-1.6,1.3-2.9,2.9-2.9h31.4
			c1.6,0,2.9,1.3,2.9,2.9V302.3z"/>
		<path class="st1" d="M80.5,302.3c0,1.6-1.3,2.9-2.9,2.9H37.3c-1.6,0-2.9-1.3-2.9-2.9V277c0-1.6,1.3-2.9,2.9-2.9h40.3
			c1.6,0,2.9,1.3,2.9,2.9V302.3z"/>
		<path class="st1" d="M115.4,302.3c0,1.6-1.3,2.9-2.9,2.9H87.1c-1.6,0-2.9-1.3-2.9-2.9V277c0-1.6,1.3-2.9,2.9-2.9h25.3
			c1.6,0,2.9,1.3,2.9,2.9V302.3z"/>
		<path class="st1" d="M451.9,302.3c0,1.6-1.3,2.9-2.9,2.9h-25.3c-1.6,0-2.9-1.3-2.9-2.9V277c0-1.6,1.3-2.9,2.9-2.9H449
			c1.6,0,2.9,1.3,2.9,2.9V302.3z"/>
		<path class="st1" d="M485.4,302.3c0,1.6-1.3,2.9-2.9,2.9h-25.3c-1.6,0-2.9-1.3-2.9-2.9V277c0-1.6,1.3-2.9,2.9-2.9h25.3
			c1.6,0,2.9,1.3,2.9,2.9V302.3z"/>
		<path class="st1" d="M163.1,302.3c0,1.6-1.3,2.9-2.9,2.9h-39c-1.6,0-2.9-1.3-2.9-2.9V277c0-1.6,1.3-2.9,2.9-2.9h39
			c1.6,0,2.9,1.3,2.9,2.9V302.3z"/>
		<path class="st1" d="M417.5,302.3c0,1.6-1.3,2.9-2.9,2.9h-40.3c-1.6,0-2.9-1.3-2.9-2.9V277c0-1.6,1.3-2.9,2.9-2.9h40.3
			c1.6,0,2.9,1.3,2.9,2.9V302.3z"/>
		<path class="st1" d="M362.7,302.3c0,1.6-1.3,2.9-2.9,2.9H174.9c-1.6,0-2.9-1.3-2.9-2.9V277c0-1.6,1.3-2.9,2.9-2.9h184.9
			c1.6,0,2.9,1.3,2.9,2.9V302.3z"/>
	</g>
</g>
<g id="svg__layer-5">
	<g>
		<path class="st1" d="M743.9,267.7c0,1.6-1.3,2.9-2.9,2.9h-25.3c-1.6,0-2.9-1.3-2.9-2.9v-25.3c0-1.6,1.3-2.9,2.9-2.9H741
			c1.6,0,2.9,1.3,2.9,2.9V267.7z"/>
		<path class="st1" d="M618.2,268.6c0,1.6-1.3,2.9-2.9,2.9H590c-1.6,0-2.9-1.3-2.9-2.9v-25.3c0-1.6,1.3-2.9,2.9-2.9h25.3
			c1.6,0,2.9,1.3,2.9,2.9V268.6z"/>
		<path class="st1" d="M208.1,268.6c0,1.6-1.3,2.9-2.9,2.9h-25.3c-1.6,0-2.9-1.3-2.9-2.9v-25.3c0-1.6,1.3-2.9,2.9-2.9h25.3
			c1.6,0,2.9,1.3,2.9,2.9V268.6z"/>
		<path class="st1" d="M376,268.6c0,1.6-1.3,2.9-2.9,2.9h-25.3c-1.6,0-2.9-1.3-2.9-2.9v-25.3c0-1.6,1.3-2.9,2.9-2.9h25.3
			c1.6,0,2.9,1.3,2.9,2.9V268.6z"/>
		<path class="st1" d="M710.4,267.7c0,1.6-1.3,2.9-2.9,2.9h-25.3c-1.6,0-2.9-1.3-2.9-2.9v-25.3c0-1.6,1.3-2.9,2.9-2.9h25.3
			c1.6,0,2.9,1.3,2.9,2.9V267.7z"/>
		<path class="st1" d="M275.3,268.6c0,1.6-1.3,2.9-2.9,2.9H247c-1.6,0-2.9-1.3-2.9-2.9v-25.3c0-1.6,1.3-2.9,2.9-2.9h25.3
			c1.6,0,2.9,1.3,2.9,2.9V268.6z"/>
		<path class="st1" d="M241.7,268.6c0,1.6-1.3,2.9-2.9,2.9h-25.3c-1.6,0-2.9-1.3-2.9-2.9v-25.3c0-1.6,1.3-2.9,2.9-2.9h25.3
			c1.6,0,2.9,1.3,2.9,2.9V268.6z"/>
		<path class="st1" d="M342.4,268.6c0,1.6-1.3,2.9-2.9,2.9h-25.3c-1.6,0-2.9-1.3-2.9-2.9v-25.3c0-1.6,1.3-2.9,2.9-2.9h25.3
			c1.6,0,2.9,1.3,2.9,2.9V268.6z"/>
		<path class="st1" d="M308.9,268.6c0,1.6-1.3,2.9-2.9,2.9h-25.3c-1.6,0-2.9-1.3-2.9-2.9v-25.3c0-1.6,1.3-2.9,2.9-2.9H306
			c1.6,0,2.9,1.3,2.9,2.9V268.6z"/>
		<path class="st1" d="M811.4,302c0,1.6-1.3,2.9-2.9,2.9h-25.3c-1.6,0-2.9-1.3-2.9-2.9v-59.3c0-1.6,1.3-2.9,2.9-2.9h25.3
			c1.6,0,2.9,1.3,2.9,2.9V302z"/>
		<path class="st1" d="M777.4,267.7c0,1.6-1.3,2.9-2.9,2.9h-25.3c-1.6,0-2.9-1.3-2.9-2.9v-25.3c0-1.6,1.3-2.9,2.9-2.9h25.3
			c1.6,0,2.9,1.3,2.9,2.9V267.7z"/>
		<path class="st1" d="M174.6,268.6c0,1.6-1.3,2.9-2.9,2.9h-25.3c-1.6,0-2.9-1.3-2.9-2.9v-25.3c0-1.6,1.3-2.9,2.9-2.9h25.3
			c1.6,0,2.9,1.3,2.9,2.9V268.6z"/>
		<path class="st1" d="M409.6,268.6c0,1.6-1.3,2.9-2.9,2.9h-25.3c-1.6,0-2.9-1.3-2.9-2.9v-25.3c0-1.6,1.3-2.9,2.9-2.9h25.3
			c1.6,0,2.9,1.3,2.9,2.9V268.6z"/>
		<path class="st1" d="M524.1,268.9c0,1.6-1.3,2.9-2.9,2.9h-70.8c-1.6,0-2.9-1.3-2.9-2.9v-25.3c0-1.6,1.3-2.9,2.9-2.9h70.8
			c1.6,0,2.9,1.3,2.9,2.9V268.9z"/>
		<path class="st1" d="M443.2,268.6c0,1.6-1.3,2.9-2.9,2.9h-25.3c-1.6,0-2.9-1.3-2.9-2.9v-25.3c0-1.6,1.3-2.9,2.9-2.9h25.3
			c1.6,0,2.9,1.3,2.9,2.9V268.6z"/>
		<path class="st1" d="M141,268.6c0,1.6-1.3,2.9-2.9,2.9h-25.3c-1.6,0-2.9-1.3-2.9-2.9v-25.3c0-1.6,1.3-2.9,2.9-2.9h25.3
			c1.6,0,2.9,1.3,2.9,2.9V268.6z"/>
		<path class="st1" d="M107.4,268.6c0,1.6-1.3,2.9-2.9,2.9H79.2c-1.6,0-2.9-1.3-2.9-2.9v-25.3c0-1.6,1.3-2.9,2.9-2.9h25.3
			c1.6,0,2.9,1.3,2.9,2.9V268.6z"/>
		<path class="st1" d="M73.6,268.6c0,1.6-1.3,2.9-2.9,2.9H37.2c-1.6,0-2.9-1.3-2.9-2.9v-25.3c0-1.6,1.3-2.9,2.9-2.9h33.5
			c1.6,0,2.9,1.3,2.9,2.9V268.6z"/>
	</g>
</g>
<g id="svg__layer-4">
	<g>
		<path class="st1" d="M743.9,233.9c0,1.6-1.3,2.9-2.9,2.9h-25.3c-1.6,0-2.9-1.3-2.9-2.9v-25.3c0-1.6,1.3-2.9,2.9-2.9H741
			c1.6,0,2.9,1.3,2.9,2.9V233.9z"/>
		<path class="st1" d="M359.1,234.6c0,1.6-1.3,2.9-2.9,2.9h-25.3c-1.6,0-2.9-1.3-2.9-2.9v-25.3c0-1.6,1.3-2.9,2.9-2.9h25.3
			c1.6,0,2.9,1.3,2.9,2.9V234.6z"/>
		<path class="st1" d="M191.2,234.6c0,1.6-1.3,2.9-2.9,2.9H163c-1.6,0-2.9-1.3-2.9-2.9v-25.3c0-1.6,1.3-2.9,2.9-2.9h25.3
			c1.6,0,2.9,1.3,2.9,2.9V234.6z"/>
		<path class="st1" d="M710.4,233.9c0,1.6-1.3,2.9-2.9,2.9h-25.3c-1.6,0-2.9-1.3-2.9-2.9v-25.3c0-1.6,1.3-2.9,2.9-2.9h25.3
			c1.6,0,2.9,1.3,2.9,2.9V233.9z"/>
		<path class="st1" d="M291.9,234.6c0,1.6-1.3,2.9-2.9,2.9h-25.3c-1.6,0-2.9-1.3-2.9-2.9v-25.3c0-1.6,1.3-2.9,2.9-2.9H289
			c1.6,0,2.9,1.3,2.9,2.9V234.6z"/>
		<path class="st1" d="M258.4,234.6c0,1.6-1.3,2.9-2.9,2.9h-25.3c-1.6,0-2.9-1.3-2.9-2.9v-25.3c0-1.6,1.3-2.9,2.9-2.9h25.3
			c1.6,0,2.9,1.3,2.9,2.9V234.6z"/>
		<path class="st1" d="M224.8,234.6c0,1.6-1.3,2.9-2.9,2.9h-25.3c-1.6,0-2.9-1.3-2.9-2.9v-25.3c0-1.6,1.3-2.9,2.9-2.9h25.3
			c1.6,0,2.9,1.3,2.9,2.9V234.6z"/>
		<path class="st1" d="M325.5,234.6c0,1.6-1.3,2.9-2.9,2.9h-25.3c-1.6,0-2.9-1.3-2.9-2.9v-25.3c0-1.6,1.3-2.9,2.9-2.9h25.3
			c1.6,0,2.9,1.3,2.9,2.9V234.6z"/>
		<path class="st1" d="M777.4,233.9c0,1.6-1.3,2.9-2.9,2.9h-25.3c-1.6,0-2.9-1.3-2.9-2.9v-25.3c0-1.6,1.3-2.9,2.9-2.9h25.3
			c1.6,0,2.9,1.3,2.9,2.9V233.9z"/>
		<path class="st1" d="M392.7,234.6c0,1.6-1.3,2.9-2.9,2.9h-25.3c-1.6,0-2.9-1.3-2.9-2.9v-25.3c0-1.6,1.3-2.9,2.9-2.9h25.3
			c1.6,0,2.9,1.3,2.9,2.9V234.6z"/>
		<path class="st1" d="M157.6,234.6c0,1.6-1.3,2.9-2.9,2.9h-25.3c-1.6,0-2.9-1.3-2.9-2.9v-25.3c0-1.6,1.3-2.9,2.9-2.9h25.3
			c1.6,0,2.9,1.3,2.9,2.9V234.6z"/>
		<path class="st1" d="M426.2,234.6c0,1.6-1.3,2.9-2.9,2.9H398c-1.6,0-2.9-1.3-2.9-2.9v-25.3c0-1.6,1.3-2.9,2.9-2.9h25.3
			c1.6,0,2.9,1.3,2.9,2.9V234.6z"/>
		<path class="st1" d="M493.4,234.6c0,1.6-1.3,2.9-2.9,2.9h-25.3c-1.6,0-2.9-1.3-2.9-2.9v-25.3c0-1.6,1.3-2.9,2.9-2.9h25.3
			c1.6,0,2.9,1.3,2.9,2.9V234.6z"/>
		<path class="st1" d="M459.8,234.6c0,1.6-1.3,2.9-2.9,2.9h-25.3c-1.6,0-2.9-1.3-2.9-2.9v-25.3c0-1.6,1.3-2.9,2.9-2.9h25.3
			c1.6,0,2.9,1.3,2.9,2.9V234.6z"/>
		<path class="st1" d="M124.1,234.6c0,1.6-1.3,2.9-2.9,2.9H95.8c-1.6,0-2.9-1.3-2.9-2.9v-25.3c0-1.6,1.3-2.9,2.9-2.9h25.3
			c1.6,0,2.9,1.3,2.9,2.9V234.6z"/>
		<path class="st1" d="M89.5,234.6c0,1.6-1.3,2.9-2.9,2.9h-49c-1.6,0-2.9-1.3-2.9-2.9v-25.3c0-1.6,1.3-2.9,2.9-2.9h49
			c1.6,0,2.9,1.3,2.9,2.9V234.6z"/>
	</g>
</g>
<g id="svg__layer-3">
	<g>
		<path class="st1" d="M743.9,200.2c0,1.6-1.3,2.9-2.9,2.9h-25.3c-1.6,0-2.9-1.3-2.9-2.9v-25.3c0-1.6,1.3-2.9,2.9-2.9H741
			c1.6,0,2.9,1.3,2.9,2.9V200.2z"/>
		<path class="st1" d="M618.2,198.3c0,1.6-1.3,2.9-2.9,2.9H590c-1.6,0-2.9-1.3-2.9-2.9V173c0-1.6,1.3-2.9,2.9-2.9h25.3
			c1.6,0,2.9,1.3,2.9,2.9V198.3z"/>
		<path class="st1" d="M350.7,200.5c0,1.6-1.3,2.9-2.9,2.9h-25.3c-1.6,0-2.9-1.3-2.9-2.9v-25.3c0-1.6,1.3-2.9,2.9-2.9h25.3
			c1.6,0,2.9,1.3,2.9,2.9V200.5z"/>
		<path class="st1" d="M182.8,200.5c0,1.6-1.3,2.9-2.9,2.9h-25.3c-1.6,0-2.9-1.3-2.9-2.9v-25.3c0-1.6,1.3-2.9,2.9-2.9h25.3
			c1.6,0,2.9,1.3,2.9,2.9V200.5z"/>
		<path class="st1" d="M710.4,200.2c0,1.6-1.3,2.9-2.9,2.9h-25.3c-1.6,0-2.9-1.3-2.9-2.9v-25.3c0-1.6,1.3-2.9,2.9-2.9h25.3
			c1.6,0,2.9,1.3,2.9,2.9V200.2z"/>
		<path class="st1" d="M584.7,198.3c0,1.6-1.3,2.9-2.9,2.9h-25.3c-1.6,0-2.9-1.3-2.9-2.9V173c0-1.6,1.3-2.9,2.9-2.9h25.3
			c1.6,0,2.9,1.3,2.9,2.9V198.3z"/>
		<path class="st1" d="M283.6,200.5c0,1.6-1.3,2.9-2.9,2.9h-25.3c-1.6,0-2.9-1.3-2.9-2.9v-25.3c0-1.6,1.3-2.9,2.9-2.9h25.3
			c1.6,0,2.9,1.3,2.9,2.9V200.5z"/>
		<path class="st1" d="M250,200.5c0,1.6-1.3,2.9-2.9,2.9h-25.3c-1.6,0-2.9-1.3-2.9-2.9v-25.3c0-1.6,1.3-2.9,2.9-2.9h25.3
			c1.6,0,2.9,1.3,2.9,2.9V200.5z"/>
		<path class="st1" d="M216.4,200.5c0,1.6-1.3,2.9-2.9,2.9h-25.3c-1.6,0-2.9-1.3-2.9-2.9v-25.3c0-1.6,1.3-2.9,2.9-2.9h25.3
			c1.6,0,2.9,1.3,2.9,2.9V200.5z"/>
		<path class="st1" d="M317.2,200.5c0,1.6-1.3,2.9-2.9,2.9h-25.3c-1.6,0-2.9-1.3-2.9-2.9v-25.3c0-1.6,1.3-2.9,2.9-2.9h25.3
			c1.6,0,2.9,1.3,2.9,2.9V200.5z"/>
		<path class="st1" d="M777.4,200.2c0,1.6-1.3,2.9-2.9,2.9h-25.3c-1.6,0-2.9-1.3-2.9-2.9v-25.3c0-1.6,1.3-2.9,2.9-2.9h25.3
			c1.6,0,2.9,1.3,2.9,2.9V200.2z"/>
		<path class="st1" d="M651.7,198.3c0,1.6-1.3,2.9-2.9,2.9h-25.3c-1.6,0-2.9-1.3-2.9-2.9V173c0-1.6,1.3-2.9,2.9-2.9h25.3
			c1.6,0,2.9,1.3,2.9,2.9V198.3z"/>
		<path class="st1" d="M384.3,200.5c0,1.6-1.3,2.9-2.9,2.9h-25.3c-1.6,0-2.9-1.3-2.9-2.9v-25.3c0-1.6,1.3-2.9,2.9-2.9h25.3
			c1.6,0,2.9,1.3,2.9,2.9V200.5z"/>
		<path class="st1" d="M149.3,200.5c0,1.6-1.3,2.9-2.9,2.9H121c-1.6,0-2.9-1.3-2.9-2.9v-25.3c0-1.6,1.3-2.9,2.9-2.9h25.3
			c1.6,0,2.9,1.3,2.9,2.9V200.5z"/>
		<path class="st1" d="M811.1,232.9c0,1.6-1.3,2.9-2.9,2.9h-25.3c-1.6,0-2.9-1.3-2.9-2.9V176c0-1.6,1.3-2.9,2.9-2.9h25.3
			c1.6,0,2.9,1.3,2.9,2.9V232.9z"/>
		<path class="st1" d="M417.9,200.5c0,1.6-1.3,2.9-2.9,2.9h-25.3c-1.6,0-2.9-1.3-2.9-2.9v-25.3c0-1.6,1.3-2.9,2.9-2.9H415
			c1.6,0,2.9,1.3,2.9,2.9V200.5z"/>
		<path class="st1" d="M485,200.5c0,1.6-1.3,2.9-2.9,2.9h-25.3c-1.6,0-2.9-1.3-2.9-2.9v-25.3c0-1.6,1.3-2.9,2.9-2.9h25.3
			c1.6,0,2.9,1.3,2.9,2.9V200.5z"/>
		<path class="st1" d="M451.5,200.5c0,1.6-1.3,2.9-2.9,2.9h-25.3c-1.6,0-2.9-1.3-2.9-2.9v-25.3c0-1.6,1.3-2.9,2.9-2.9h25.3
			c1.6,0,2.9,1.3,2.9,2.9V200.5z"/>
		<path class="st1" d="M522.7,173.4h-31.4c-1.6,0-2.9,1.3-2.9,2.9v25.3c0,1.6,1.3,2.9,2.9,2.9h5.7v28.8c0,1.6,1.3,2.9,2.9,2.9h22.7
			c1.6,0,2.9-1.3,2.9-2.9v-31.7V200v-23.7C525.6,174.7,524.3,173.4,522.7,173.4z"/>
		<path class="st1" d="M115.7,200.5c0,1.6-1.3,2.9-2.9,2.9H87.4c-1.6,0-2.9-1.3-2.9-2.9v-25.3c0-1.6,1.3-2.9,2.9-2.9h25.3
			c1.6,0,2.9,1.3,2.9,2.9V200.5z"/>
		<path class="st1" d="M81.6,200.5c0,1.6-1.3,2.9-2.9,2.9H37.3c-1.6,0-2.9-1.3-2.9-2.9v-25.3c0-1.6,1.3-2.9,2.9-2.9h41.4
			c1.6,0,2.9,1.3,2.9,2.9V200.5z"/>
	</g>
</g>
<g id="svg__layer-2">
	<g>
		<path class="st1" d="M743.9,166.5c0,1.6-1.3,2.9-2.9,2.9h-25.3c-1.6,0-2.9-1.3-2.9-2.9v-25.3c0-1.6,1.3-2.9,2.9-2.9H741
			c1.6,0,2.9,1.3,2.9,2.9V166.5z"/>
		<path class="st1" d="M618.2,164.6c0,1.6-1.3,2.9-2.9,2.9H590c-1.6,0-2.9-1.3-2.9-2.9v-25.3c0-1.6,1.3-2.9,2.9-2.9h25.3
			c1.6,0,2.9,1.3,2.9,2.9V164.6z"/>
		<path class="st1" d="M367.6,166.4c0,1.6-1.3,2.9-2.9,2.9h-25.3c-1.6,0-2.9-1.3-2.9-2.9V141c0-1.6,1.3-2.9,2.9-2.9h25.3
			c1.6,0,2.9,1.3,2.9,2.9V166.4z"/>
		<path class="st1" d="M199.8,166.4c0,1.6-1.3,2.9-2.9,2.9h-25.3c-1.6,0-2.9-1.3-2.9-2.9V141c0-1.6,1.3-2.9,2.9-2.9h25.3
			c1.6,0,2.9,1.3,2.9,2.9V166.4z"/>
		<path class="st1" d="M710.4,166.5c0,1.6-1.3,2.9-2.9,2.9h-25.3c-1.6,0-2.9-1.3-2.9-2.9v-25.3c0-1.6,1.3-2.9,2.9-2.9h25.3
			c1.6,0,2.9,1.3,2.9,2.9V166.5z"/>
		<path class="st1" d="M584.7,164.6c0,1.6-1.3,2.9-2.9,2.9h-25.3c-1.6,0-2.9-1.3-2.9-2.9v-25.3c0-1.6,1.3-2.9,2.9-2.9h25.3
			c1.6,0,2.9,1.3,2.9,2.9V164.6z"/>
		<path class="st1" d="M266.9,166.4c0,1.6-1.3,2.9-2.9,2.9h-25.3c-1.6,0-2.9-1.3-2.9-2.9V141c0-1.6,1.3-2.9,2.9-2.9H264
			c1.6,0,2.9,1.3,2.9,2.9V166.4z"/>
		<path class="st1" d="M233.3,166.4c0,1.6-1.3,2.9-2.9,2.9h-25.3c-1.6,0-2.9-1.3-2.9-2.9V141c0-1.6,1.3-2.9,2.9-2.9h25.3
			c1.6,0,2.9,1.3,2.9,2.9V166.4z"/>
		<path class="st1" d="M334.1,166.4c0,1.6-1.3,2.9-2.9,2.9h-25.3c-1.6,0-2.9-1.3-2.9-2.9V141c0-1.6,1.3-2.9,2.9-2.9h25.3
			c1.6,0,2.9,1.3,2.9,2.9V166.4z"/>
		<path class="st1" d="M300.5,166.4c0,1.6-1.3,2.9-2.9,2.9h-25.3c-1.6,0-2.9-1.3-2.9-2.9V141c0-1.6,1.3-2.9,2.9-2.9h25.3
			c1.6,0,2.9,1.3,2.9,2.9V166.4z"/>
		<path class="st1" d="M777.4,166.5c0,1.6-1.3,2.9-2.9,2.9h-25.3c-1.6,0-2.9-1.3-2.9-2.9v-25.3c0-1.6,1.3-2.9,2.9-2.9h25.3
			c1.6,0,2.9,1.3,2.9,2.9V166.5z"/>
		<path class="st1" d="M651.7,164.6c0,1.6-1.3,2.9-2.9,2.9h-25.3c-1.6,0-2.9-1.3-2.9-2.9v-25.3c0-1.6,1.3-2.9,2.9-2.9h25.3
			c1.6,0,2.9,1.3,2.9,2.9V164.6z"/>
		<path class="st1" d="M401.2,166.4c0,1.6-1.3,2.9-2.9,2.9H373c-1.6,0-2.9-1.3-2.9-2.9V141c0-1.6,1.3-2.9,2.9-2.9h25.3
			c1.6,0,2.9,1.3,2.9,2.9V166.4z"/>
		<path class="st1" d="M166.2,166.4c0,1.6-1.3,2.9-2.9,2.9h-25.3c-1.6,0-2.9-1.3-2.9-2.9V141c0-1.6,1.3-2.9,2.9-2.9h25.3
			c1.6,0,2.9,1.3,2.9,2.9V166.4z"/>
		<path class="st1" d="M132.6,166.4c0,1.6-1.3,2.9-2.9,2.9h-25.3c-1.6,0-2.9-1.3-2.9-2.9V141c0-1.6,1.3-2.9,2.9-2.9h25.3
			c1.6,0,2.9,1.3,2.9,2.9V166.4z"/>
		<path class="st1" d="M811.1,166.5c0,1.6-1.3,2.9-2.9,2.9h-25.3c-1.6,0-2.9-1.3-2.9-2.9v-25.3c0-1.6,1.3-2.9,2.9-2.9h25.3
			c1.6,0,2.9,1.3,2.9,2.9V166.5z"/>
		<path class="st1" d="M468.4,166.4c0,1.6-1.3,2.9-2.9,2.9h-25.3c-1.6,0-2.9-1.3-2.9-2.9V141c0-1.6,1.3-2.9,2.9-2.9h25.3
			c1.6,0,2.9,1.3,2.9,2.9V166.4z"/>
		<path class="st1" d="M434.8,166.4c0,1.6-1.3,2.9-2.9,2.9h-25.3c-1.6,0-2.9-1.3-2.9-2.9V141c0-1.6,1.3-2.9,2.9-2.9h25.3
			c1.6,0,2.9,1.3,2.9,2.9V166.4z"/>
		<path class="st1" d="M525,166.6c0,1.6-1.3,2.9-2.9,2.9h-47.4c-1.6,0-2.9-1.3-2.9-2.9v-25.3c0-1.6,1.3-2.9,2.9-2.9h47.4
			c1.6,0,2.9,1.3,2.9,2.9V166.6z"/>
		<path class="st1" d="M99,166.4c0,1.6-1.3,2.9-2.9,2.9H70.8c-1.6,0-2.9-1.3-2.9-2.9V141c0-1.6,1.3-2.9,2.9-2.9h25.3
			c1.6,0,2.9,1.3,2.9,2.9V166.4z"/>
		<path class="st1" d="M65,166.4c0,1.6-1.3,2.9-2.9,2.9H36.7c-1.6,0-2.9-1.3-2.9-2.9V141c0-1.6,1.3-2.9,2.9-2.9h25.3
			c1.6,0,2.9,1.3,2.9,2.9V166.4z"/>
	</g>
</g>
</svg>
